<?xml version="1.0" standalone="no"?><!DOCTYPE svg PUBLIC "-//W3C//DTD SVG 1.1//EN" "http://www.w3.org/Graphics/SVG/1.1/DTD/svg11.dtd"><svg t="1586491808060" class="icon" viewBox="0 0 1024 1024" version="1.1" xmlns="http://www.w3.org/2000/svg" p-id="6157" xmlns:xlink="http://www.w3.org/1999/xlink" width="200" height="200"><defs><style type="text/css"></style></defs><path d="M512.010745 1022.082324c-282.335297 0-511.220241-228.798986-511.220241-511.036046C0.790504 228.798986 229.675448 0 512.010745 0c282.312784 0 511.198751 228.798986 511.198751 511.046279C1023.208473 793.285385 794.322505 1022.082324 512.010745 1022.082324zM512.010745 95.826486c-229.385341 0-415.371242 185.884594-415.371242 415.220816 0 107.22714 41.021276 204.6551 107.802238 278.339286 60.140729-29.092595 38.062897-4.88424 116.77254-37.274952 80.539314-33.089629 99.610672-44.639686 99.610672-44.639686l0.776689-76.29464c0 0-30.169113-22.890336-39.543621-94.683453-18.895349 5.426593-25.108864-21.988804-26.237571-39.429011-1.001817-16.863063-10.926864-69.487607 12.105712-64.739467-4.714372-35.144428-8.094352-66.844407-6.417153-83.633792 5.763261-58.938344 62.97324-120.518864 151.105486-125.017318 103.665011 4.486174 144.737452 66.028832 150.500713 124.9682 1.680269 16.800641-2.028193 48.511877-6.739495 83.594907 23.025413-4.686742 13.028735 47.861054 11.901051 64.726164-1.028423 17.440208-7.394411 44.756343-26.208918 39.34203-9.42158 71.79107-39.593763 94.498234-39.593763 94.498234l0.725524 75.924203c0 0 19.070334 10.788717 99.609649 43.892673 78.70862 32.387641 56.605206 9.609869 116.77561 38.765909 66.75231-73.686233 107.772562-171.101913 107.772562-278.339286C927.356404 281.712103 741.398132 95.826486 512.010745 95.826486z" p-id="6158"></path></svg>